<svg width="287" height="36" viewBox="0 0 287 36" fill="none" xmlns="http://www.w3.org/2000/svg">
<ellipse cx="18.8765" cy="18" rx="18.8765" ry="18" fill="#FF9D00"/>
<path d="M52.2727 11.2614V7.72727H70.8409V11.2614H63.6477V31H59.4659V11.2614H52.2727ZM76.8864 31.3523C75.7803 31.3523 74.7841 31.1553 73.8977 30.7614C73.0189 30.3598 72.322 29.7689 71.8068 28.9886C71.2992 28.2083 71.0455 27.2462 71.0455 26.1023C71.0455 25.1174 71.2273 24.303 71.5909 23.6591C71.9545 23.0152 72.4508 22.5 73.0795 22.1136C73.7083 21.7273 74.4167 21.4356 75.2045 21.2386C76 21.0341 76.822 20.8864 77.6705 20.7955C78.6932 20.6894 79.5227 20.5947 80.1591 20.5114C80.7955 20.4205 81.2576 20.2841 81.5455 20.1023C81.8409 19.9129 81.9886 19.6212 81.9886 19.2273V19.1591C81.9886 18.303 81.7348 17.6402 81.2273 17.1705C80.7197 16.7008 79.9886 16.4659 79.0341 16.4659C78.0265 16.4659 77.2273 16.6856 76.6364 17.125C76.053 17.5644 75.6591 18.0833 75.4545 18.6818L71.6136 18.1364C71.9167 17.0758 72.4167 16.1894 73.1136 15.4773C73.8106 14.7576 74.6629 14.2197 75.6705 13.8636C76.678 13.5 77.7917 13.3182 79.0114 13.3182C79.8523 13.3182 80.6894 13.4167 81.5227 13.6136C82.3561 13.8106 83.1174 14.1364 83.8068 14.5909C84.4962 15.0379 85.0492 15.6477 85.4659 16.4205C85.8902 17.1932 86.1023 18.1591 86.1023 19.3182V31H82.1477V28.6023H82.0114C81.7614 29.0871 81.4091 29.5417 80.9545 29.9659C80.5076 30.3826 79.9432 30.7197 79.2614 30.9773C78.5871 31.2273 77.7955 31.3523 76.8864 31.3523ZM77.9545 28.3295C78.7803 28.3295 79.4962 28.1667 80.1023 27.8409C80.7083 27.5076 81.1742 27.0682 81.5 26.5227C81.8333 25.9773 82 25.3826 82 24.7386V22.6818C81.8712 22.7879 81.6515 22.8864 81.3409 22.9773C81.0379 23.0682 80.697 23.1477 80.3182 23.2159C79.9394 23.2841 79.5644 23.3447 79.1932 23.3977C78.822 23.4508 78.5 23.4962 78.2273 23.5341C77.6136 23.6174 77.0644 23.7538 76.5795 23.9432C76.0947 24.1326 75.7121 24.3977 75.4318 24.7386C75.1515 25.072 75.0114 25.5038 75.0114 26.0341C75.0114 26.7917 75.2879 27.3636 75.8409 27.75C76.3939 28.1364 77.0985 28.3295 77.9545 28.3295ZM94.3523 7.72727V31H90.2386V7.72727H94.3523ZM106.31 31.3409C104.56 31.3409 103.048 30.9773 101.776 30.25C100.51 29.5152 99.5369 28.4773 98.8551 27.1364C98.1733 25.7879 97.8324 24.2008 97.8324 22.375C97.8324 20.5795 98.1733 19.0038 98.8551 17.6477C99.5445 16.2841 100.507 15.2235 101.741 14.4659C102.976 13.7008 104.427 13.3182 106.094 13.3182C107.17 13.3182 108.185 13.4924 109.139 13.8409C110.101 14.1818 110.95 14.7121 111.685 15.4318C112.427 16.1515 113.01 17.0682 113.435 18.1818C113.859 19.2879 114.071 20.6061 114.071 22.1364V23.3977H99.7642V20.625H110.128C110.12 19.8371 109.95 19.1364 109.616 18.5227C109.283 17.9015 108.817 17.4129 108.219 17.0568C107.628 16.7008 106.938 16.5227 106.151 16.5227C105.31 16.5227 104.571 16.7273 103.935 17.1364C103.298 17.5379 102.802 18.0682 102.446 18.7273C102.098 19.3788 101.92 20.0947 101.912 20.875V23.2955C101.912 24.3106 102.098 25.1818 102.469 25.9091C102.84 26.6288 103.359 27.1818 104.026 27.5682C104.692 27.947 105.473 28.1364 106.366 28.1364C106.965 28.1364 107.507 28.053 107.991 27.8864C108.476 27.7121 108.897 27.4583 109.253 27.125C109.609 26.7917 109.878 26.3788 110.06 25.8864L113.901 26.3182C113.658 27.3333 113.196 28.2197 112.514 28.9773C111.84 29.7273 110.976 30.3106 109.923 30.7273C108.87 31.1364 107.666 31.3409 106.31 31.3409ZM121.665 20.7727V31H117.551V13.5455H121.483V16.5114H121.688C122.089 15.5341 122.729 14.7576 123.608 14.1818C124.494 13.6061 125.589 13.3182 126.892 13.3182C128.097 13.3182 129.146 13.5758 130.04 14.0909C130.941 14.6061 131.638 15.3523 132.131 16.3295C132.631 17.3068 132.877 18.4924 132.869 19.8864V31H128.756V20.5227C128.756 19.3561 128.453 18.4432 127.847 17.7841C127.248 17.125 126.419 16.7955 125.358 16.7955C124.638 16.7955 123.998 16.9545 123.438 17.2727C122.884 17.5833 122.449 18.0341 122.131 18.625C121.82 19.2159 121.665 19.9318 121.665 20.7727ZM145.767 13.5455V16.7273H135.733V13.5455H145.767ZM138.21 9.36364H142.324V25.75C142.324 26.303 142.407 26.7273 142.574 27.0227C142.748 27.3106 142.975 27.5076 143.256 27.6136C143.536 27.7197 143.847 27.7727 144.188 27.7727C144.445 27.7727 144.68 27.7538 144.892 27.7159C145.112 27.678 145.278 27.6439 145.392 27.6136L146.085 30.8295C145.866 30.9053 145.551 30.9886 145.142 31.0795C144.741 31.1705 144.248 31.2235 143.665 31.2386C142.634 31.2689 141.706 31.1136 140.881 30.7727C140.055 30.4242 139.4 29.8864 138.915 29.1591C138.438 28.4318 138.203 27.5227 138.21 26.4318V9.36364ZM177.247 15.5795H172.997C172.876 14.8826 172.652 14.2652 172.327 13.7273C172.001 13.1818 171.596 12.7197 171.111 12.3409C170.626 11.9621 170.073 11.678 169.452 11.4886C168.838 11.2917 168.175 11.1932 167.463 11.1932C166.198 11.1932 165.077 11.5114 164.099 12.1477C163.122 12.7765 162.357 13.7008 161.804 14.9205C161.251 16.1326 160.974 17.6136 160.974 19.3636C160.974 21.1439 161.251 22.6439 161.804 23.8636C162.365 25.0758 163.13 25.9924 164.099 26.6136C165.077 27.2273 166.194 27.5341 167.452 27.5341C168.149 27.5341 168.8 27.4432 169.406 27.2614C170.02 27.072 170.569 26.7955 171.054 26.4318C171.546 26.0682 171.959 25.6212 172.293 25.0909C172.634 24.5606 172.868 23.9545 172.997 23.2727L177.247 23.2955C177.088 24.4015 176.743 25.4394 176.213 26.4091C175.69 27.3788 175.005 28.2348 174.156 28.9773C173.308 29.7121 172.315 30.2879 171.179 30.7045C170.043 31.1136 168.781 31.3182 167.395 31.3182C165.349 31.3182 163.524 30.8447 161.918 29.8977C160.312 28.9508 159.046 27.5833 158.122 25.7955C157.198 24.0076 156.736 21.8636 156.736 19.3636C156.736 16.8561 157.202 14.7121 158.134 12.9318C159.065 11.1439 160.334 9.77651 161.94 8.82954C163.546 7.88257 165.365 7.40909 167.395 7.40909C168.69 7.40909 169.895 7.59091 171.009 7.95454C172.122 8.31818 173.115 8.85227 173.986 9.55682C174.857 10.2538 175.573 11.1098 176.134 12.125C176.702 13.1326 177.073 14.2841 177.247 15.5795ZM188.54 31.3409C186.835 31.3409 185.358 30.9659 184.108 30.2159C182.858 29.4659 181.888 28.4167 181.199 27.0682C180.517 25.7197 180.176 24.1439 180.176 22.3409C180.176 20.5379 180.517 18.9583 181.199 17.6023C181.888 16.2462 182.858 15.1932 184.108 14.4432C185.358 13.6932 186.835 13.3182 188.54 13.3182C190.244 13.3182 191.722 13.6932 192.972 14.4432C194.222 15.1932 195.188 16.2462 195.869 17.6023C196.559 18.9583 196.903 20.5379 196.903 22.3409C196.903 24.1439 196.559 25.7197 195.869 27.0682C195.188 28.4167 194.222 29.4659 192.972 30.2159C191.722 30.9659 190.244 31.3409 188.54 31.3409ZM188.562 28.0455C189.487 28.0455 190.259 27.7917 190.881 27.2841C191.502 26.7689 191.964 26.0795 192.267 25.2159C192.578 24.3523 192.733 23.3902 192.733 22.3295C192.733 21.2614 192.578 20.2955 192.267 19.4318C191.964 18.5606 191.502 17.8674 190.881 17.3523C190.259 16.8371 189.487 16.5795 188.562 16.5795C187.616 16.5795 186.828 16.8371 186.199 17.3523C185.578 17.8674 185.112 18.5606 184.801 19.4318C184.498 20.2955 184.347 21.2614 184.347 22.3295C184.347 23.3902 184.498 24.3523 184.801 25.2159C185.112 26.0795 185.578 26.7689 186.199 27.2841C186.828 27.7917 187.616 28.0455 188.562 28.0455ZM204.509 20.7727V31H200.395V13.5455H204.327V16.5114H204.531C204.933 15.5341 205.573 14.7576 206.452 14.1818C207.338 13.6061 208.433 13.3182 209.736 13.3182C210.94 13.3182 211.99 13.5758 212.884 14.0909C213.785 14.6061 214.482 15.3523 214.974 16.3295C215.474 17.3068 215.721 18.4924 215.713 19.8864V31H211.599V20.5227C211.599 19.3561 211.296 18.4432 210.69 17.7841C210.092 17.125 209.262 16.7955 208.202 16.7955C207.482 16.7955 206.842 16.9545 206.281 17.2727C205.728 17.5833 205.293 18.0341 204.974 18.625C204.664 19.2159 204.509 19.9318 204.509 20.7727ZM224.009 20.7727V31H219.895V13.5455H223.827V16.5114H224.031C224.433 15.5341 225.073 14.7576 225.952 14.1818C226.838 13.6061 227.933 13.3182 229.236 13.3182C230.44 13.3182 231.49 13.5758 232.384 14.0909C233.285 14.6061 233.982 15.3523 234.474 16.3295C234.974 17.3068 235.221 18.4924 235.213 19.8864V31H231.099V20.5227C231.099 19.3561 230.796 18.4432 230.19 17.7841C229.592 17.125 228.762 16.7955 227.702 16.7955C226.982 16.7955 226.342 16.9545 225.781 17.2727C225.228 17.5833 224.793 18.0341 224.474 18.625C224.164 19.2159 224.009 19.9318 224.009 20.7727ZM247.122 31.3409C245.372 31.3409 243.861 30.9773 242.588 30.25C241.323 29.5152 240.349 28.4773 239.668 27.1364C238.986 25.7879 238.645 24.2008 238.645 22.375C238.645 20.5795 238.986 19.0038 239.668 17.6477C240.357 16.2841 241.319 15.2235 242.554 14.4659C243.789 13.7008 245.24 13.3182 246.906 13.3182C247.982 13.3182 248.997 13.4924 249.952 13.8409C250.914 14.1818 251.762 14.7121 252.497 15.4318C253.24 16.1515 253.823 17.0682 254.247 18.1818C254.671 19.2879 254.884 20.6061 254.884 22.1364V23.3977H240.577V20.625H250.94C250.933 19.8371 250.762 19.1364 250.429 18.5227C250.096 17.9015 249.63 17.4129 249.031 17.0568C248.44 16.7008 247.751 16.5227 246.963 16.5227C246.122 16.5227 245.384 16.7273 244.747 17.1364C244.111 17.5379 243.615 18.0682 243.259 18.7273C242.91 19.3788 242.732 20.0947 242.724 20.875V23.2955C242.724 24.3106 242.91 25.1818 243.281 25.9091C243.652 26.6288 244.171 27.1818 244.838 27.5682C245.505 27.947 246.285 28.1364 247.179 28.1364C247.777 28.1364 248.319 28.053 248.804 27.8864C249.289 27.7121 249.709 27.4583 250.065 27.125C250.421 26.7917 250.69 26.3788 250.872 25.8864L254.713 26.3182C254.471 27.3333 254.009 28.2197 253.327 28.9773C252.652 29.7273 251.789 30.3106 250.736 30.7273C249.683 31.1364 248.478 31.3409 247.122 31.3409ZM265.977 31.3409C264.235 31.3409 262.739 30.9583 261.489 30.1932C260.246 29.428 259.288 28.3712 258.614 27.0227C257.947 25.6667 257.614 24.1061 257.614 22.3409C257.614 20.5682 257.955 19.0038 258.636 17.6477C259.318 16.2841 260.28 15.2235 261.523 14.4659C262.773 13.7008 264.25 13.3182 265.955 13.3182C267.371 13.3182 268.625 13.5795 269.716 14.1023C270.814 14.6174 271.689 15.3485 272.341 16.2955C272.992 17.2348 273.364 18.3333 273.455 19.5909H269.523C269.364 18.75 268.985 18.0492 268.386 17.4886C267.795 16.9205 267.004 16.6364 266.011 16.6364C265.17 16.6364 264.432 16.8636 263.795 17.3182C263.159 17.7652 262.663 18.4091 262.307 19.25C261.958 20.0909 261.784 21.0985 261.784 22.2727C261.784 23.4621 261.958 24.4848 262.307 25.3409C262.655 26.1894 263.144 26.8447 263.773 27.3068C264.409 27.7614 265.155 27.9886 266.011 27.9886C266.617 27.9886 267.159 27.875 267.636 27.6477C268.121 27.4129 268.527 27.0758 268.852 26.6364C269.178 26.197 269.402 25.6629 269.523 25.0341H273.455C273.356 26.2689 272.992 27.3636 272.364 28.3182C271.735 29.2652 270.879 30.0076 269.795 30.5455C268.712 31.0758 267.439 31.3409 265.977 31.3409ZM285.548 13.5455V16.7273H275.514V13.5455H285.548ZM277.991 9.36364H282.105V25.75C282.105 26.303 282.188 26.7273 282.355 27.0227C282.529 27.3106 282.757 27.5076 283.037 27.6136C283.317 27.7197 283.628 27.7727 283.969 27.7727C284.226 27.7727 284.461 27.7538 284.673 27.7159C284.893 27.678 285.06 27.6439 285.173 27.6136L285.866 30.8295C285.647 30.9053 285.332 30.9886 284.923 31.0795C284.522 31.1705 284.029 31.2235 283.446 31.2386C282.416 31.2689 281.488 31.1136 280.662 30.7727C279.836 30.4242 279.181 29.8864 278.696 29.1591C278.219 28.4318 277.984 27.5227 277.991 26.4318V9.36364Z" fill="black"/>
</svg>
