<svg width="151" height="151" viewBox="0 0 151 151" fill="none" xmlns="http://www.w3.org/2000/svg">
<mask id="mask0_17_1472" style="mask-type:alpha" maskUnits="userSpaceOnUse" x="12" y="12" width="127" height="127">
<path fill-rule="evenodd" clip-rule="evenodd" d="M75.4999 138.417C110.248 138.417 138.417 110.248 138.417 75.4999C138.417 40.752 110.248 12.5833 75.4999 12.5833C40.752 12.5833 12.5833 40.752 12.5833 75.4999C12.5833 110.248 40.752 138.417 75.4999 138.417ZM100.757 100.667C102.471 100.667 103.933 100.039 105.143 98.7829C106.353 97.527 106.958 96.0452 106.958 94.3372V56.6626C106.958 54.9547 106.353 53.4728 105.143 52.217C103.933 50.9612 102.471 50.3333 100.757 50.3333H50.2425C48.5284 50.3333 47.0664 50.9612 45.8565 52.217C44.6466 53.4728 44.0416 54.9547 44.0416 56.6626V94.3372C44.0416 96.0452 44.6466 97.527 45.8565 98.7829C47.0664 100.039 48.5284 100.667 50.2425 100.667H100.757ZM75.5001 78.5891L50.2427 62.9918V56.6625L75.5001 72.4105L100.758 56.6625V62.9918L75.5001 78.5891Z" fill="#101010"/>
</mask>
<g mask="url(#mask0_17_1472)">
<rect width="151" height="151" fill="#FF9D00"/>
</g>
</svg>
