<svg width="48" height="48" viewBox="0 0 48 48" fill="none" xmlns="http://www.w3.org/2000/svg">
<circle cx="24" cy="24" r="24" fill="#F5F9FE"/>
<path d="M26.0665 20.7306C29.0296 20.7306 31.4317 18.3284 31.4317 15.3653C31.4317 12.4021 29.0296 10 26.0665 10C23.1033 10 20.7012 12.4021 20.7012 15.3653C20.7012 18.3284 23.1033 20.7306 26.0665 20.7306Z" fill="#F8CF57"/>
<path d="M26.0662 10.0959C25.8746 10.0959 25.5871 10.0959 25.3955 10.0959C27.9823 10.3834 30.0901 12.6828 30.0901 15.3654C30.0901 18.0481 28.0781 20.3475 25.3955 20.6349C25.5871 20.6349 25.8746 20.6349 26.0662 20.6349C29.0362 20.6349 31.4314 18.2397 31.4314 15.2696C31.3356 12.4912 28.9404 10.0959 26.0662 10.0959Z" fill="#FF8F29"/>
<path d="M31.048 25.7127L36.7007 23.6049C37.7546 23.2216 38.9043 23.4133 39.8624 23.9881C40.6288 24.4672 40.533 25.6169 39.7666 26.0959L30.5689 31.4612C28.1737 32.8983 25.2037 33.3773 22.521 32.7067L18.1138 31.7486C16.1977 31.2696 14.0899 31.8444 12.5569 33.0899L11.503 33.9522L11.4072 25.4252C11.4072 25.4252 15.1438 21.018 21.2755 23.1258L24.9162 24.1797L28.8444 24.0839C29.8983 24.0839 30.7606 24.9462 30.7606 25.9043C30.7606 26.8624 29.9941 27.7246 29.036 27.7246L22.3294 28.1079" fill="white"/>
<path d="M31.6232 29.9283C29.228 31.3654 26.2579 31.8444 23.5753 31.1738L19.1681 30.2157C17.2519 29.7367 15.1441 30.3115 13.6112 31.557L12.5573 32.4193V24.9462C12.174 25.2336 11.9824 25.5211 11.9824 25.5211L12.0782 34.048L12.9405 33.1858C14.4734 31.9402 16.4854 31.4612 18.4974 31.8444L22.9046 32.8025C25.6831 33.3774 28.5573 32.9941 30.9525 31.557L40.1502 26.1917C40.725 25.8085 40.9166 25.1378 40.6292 24.563L31.6232 29.9283Z" fill="#E6F0FF"/>
<path d="M31.048 25.7127L36.7007 23.6049C37.7546 23.2216 38.9043 23.4133 39.8624 23.9881C40.6288 24.4672 40.533 25.6169 39.7666 26.0959L30.5689 31.4612C28.1737 32.8983 25.2037 33.3773 22.521 32.7067L18.1138 31.7486C16.1977 31.2696 14.0899 31.8444 12.5569 33.0899L11.503 33.9522L11.4072 25.4252C11.4072 25.4252 15.1438 21.018 21.2755 23.1258L24.9162 24.1797L28.8444 24.0839C29.8983 24.0839 30.7606 24.9462 30.7606 25.9043C30.7606 26.8624 29.9941 27.7246 29.036 27.7246L22.3294 28.1079" stroke="#07448E" stroke-miterlimit="10" stroke-linecap="round" stroke-linejoin="round"/>
<path d="M7 23.1257H11.4072V36.0599H7" stroke="#07448E" stroke-miterlimit="10" stroke-linecap="round" stroke-linejoin="round"/>
<path d="M26.0655 20.7306C29.0286 20.7306 31.4308 18.3284 31.4308 15.3653C31.4308 12.4021 29.0286 10 26.0655 10C23.1023 10 20.7002 12.4021 20.7002 15.3653C20.7002 18.3284 23.1023 20.7306 26.0655 20.7306Z" stroke="#07448E" stroke-miterlimit="10" stroke-linecap="round" stroke-linejoin="round"/>
</svg>
