<svg width="44" height="44" viewBox="0 0 44 44" fill="none" xmlns="http://www.w3.org/2000/svg">
<mask id="mask0_17_1595" style="mask-type:alpha" maskUnits="userSpaceOnUse" x="5" y="5" width="34" height="34">
<path fill-rule="evenodd" clip-rule="evenodd" d="M38.9587 21.9998C38.9587 31.3657 31.3662 38.9582 22.0003 38.9582C12.6345 38.9582 5.04199 31.3657 5.04199 21.9998C5.04199 12.634 12.6345 5.0415 22.0003 5.0415C31.3662 5.0415 38.9587 12.634 38.9587 21.9998ZM27.501 16.4993C28.038 17.0363 28.038 17.9069 27.501 18.4438L23.9449 21.9999L27.501 25.556C28.038 26.0929 28.038 26.9635 27.501 27.5005C26.964 28.0375 26.0934 28.0375 25.5564 27.5005L22.0004 23.9444L18.4443 27.5005C17.9073 28.0375 17.0367 28.0375 16.4998 27.5005C15.9628 26.9635 15.9628 26.0929 16.4998 25.556L20.0558 21.9999L16.4998 18.4438C15.9628 17.9069 15.9628 17.0363 16.4998 16.4993C17.0367 15.9623 17.9073 15.9623 18.4443 16.4993L22.0004 20.0553L25.5564 16.4993C26.0934 15.9623 26.964 15.9623 27.501 16.4993Z" fill="#101010"/>
</mask>
<g mask="url(#mask0_17_1595)">
<rect width="44" height="44" fill="#101010" fill-opacity="0.54"/>
</g>
</svg>
